<?xml version="1.0" standalone="no"?>
<!DOCTYPE svg PUBLIC "-//W3C//DTD SVG 20010904//EN"
 "http://www.w3.org/TR/2001/REC-SVG-20010904/DTD/svg10.dtd">
<svg version="1.0" xmlns="http://www.w3.org/2000/svg"
 width="243.000000pt" height="246.000000pt" viewBox="0 0 243.000000 246.000000"
 preserveAspectRatio="xMidYMid meet">

<g transform="translate(0.000000,246.000000) scale(0.100000,-0.100000)"
fill="#3e6fd1" stroke="none">
<path d="M415 2408 c-182 -34 -340 -197 -374 -382 -7 -40 -11 -315 -11 -815 0
-818 1 -824 55 -930 35 -71 125 -163 192 -198 123 -65 88 -63 953 -63 865 0
830 -2 953 63 67 35 157 127 192 198 54 106 55 112 55 930 0 500 -4 775 -11
815 -35 190 -193 348 -383 383 -76 14 -1548 13 -1621 -1z m619 -612 c74 -27
135 -65 172 -109 l24 -29 24 29 c57 68 180 126 292 138 73 8 181 -13 259 -51
110 -54 221 -205 245 -333 5 -29 10 -204 10 -387 0 -315 -1 -333 -18 -339 -12
-3 -51 13 -110 47 l-90 53 -4 300 c-2 250 -6 306 -19 336 -89 195 -361 202
-455 12 -17 -34 -19 -70 -24 -388 -6 -409 7 -380 -132 -300 l-87 50 -3 300
c-3 271 -5 304 -22 338 -94 190 -366 183 -455 -12 -13 -30 -16 -85 -19 -336
l-3 -301 -89 -52 c-95 -56 -114 -61 -124 -36 -10 26 -7 658 4 715 15 80 65
172 130 243 126 134 315 177 494 112z"/>
</g>
</svg>
